<svg width="1600" height="900" viewBox="0 0 1600 900" fill="none" xmlns="http://www.w3.org/2000/svg">
  <rect width="1600" height="900" fill="#0A3A22"/>
  <rect width="1600" height="900" fill="url(#paint0_linear)"/>
  <rect x="70" y="90" width="220" height="720" fill="#12492C" fill-opacity="0.7"/>
  <rect x="320" y="90" width="160" height="720" fill="#14532D" fill-opacity="0.55"/>
  <rect x="1110" y="90" width="120" height="720" fill="#14532D" fill-opacity="0.65"/>
  <rect x="1250" y="90" width="220" height="720" fill="#1B6B3C" fill-opacity="0.72"/>
  <path d="M530 120H1040V780H530V120Z" fill="#0F4A2A" fill-opacity="0.28"/>
  <path d="M520 780L790 120H840L570 780H520Z" fill="#74B485" fill-opacity="0.12"/>
  <path d="M680 780L950 120H1000L730 780H680Z" fill="#74B485" fill-opacity="0.12"/>
  <path d="M840 780L1110 120H1160L890 780H840Z" fill="#74B485" fill-opacity="0.12"/>
  <rect x="530" y="120" width="520" height="4" fill="#74B485" fill-opacity="0.18"/>
  <rect x="530" y="776" width="520" height="4" fill="#74B485" fill-opacity="0.18"/>
  <circle cx="1120" cy="185" r="30" fill="#C8F0D0" fill-opacity="0.18"/>
  <circle cx="1185" cy="250" r="18" fill="#D7F7DE" fill-opacity="0.12"/>
  <circle cx="1030" cy="320" r="14" fill="#D7F7DE" fill-opacity="0.12"/>
  <defs>
    <linearGradient id="paint0_linear" x1="0" y1="0" x2="1600" y2="900" gradientUnits="userSpaceOnUse">
      <stop stop-color="#0B4C2B"/>
      <stop offset="0.55" stop-color="#0B4A2A"/>
      <stop offset="1" stop-color="#062C18"/>
    </linearGradient>
  </defs>
</svg>
